HIERARCHY
ROOT root
{
	OFFSET 0.000000 0.000000 0.000000
	CHANNELS 6 Xposition Yposition Zposition Zrotation Yrotation Xrotation
	JOINT lhip
	{
		OFFSET 0.058581 -0.082280 -0.017664
		CHANNELS 3 Zrotation Yrotation Xrotation
		JOINT lknee
		{
			OFFSET 0.043451 -0.386469 0.008037
			CHANNELS 3 Zrotation Yrotation Xrotation
			JOINT lankle
			{
				OFFSET -0.014790 -0.426874 -0.037428
				CHANNELS 3 Zrotation Yrotation Xrotation
				JOINT ltoe
				{
					OFFSET 0.041054 -0.060286 0.122042
					CHANNELS 3 Zrotation Yrotation Xrotation
					End Site
					{
						OFFSET 0.000000 0.000000 0.000000
					}
				}
			}
		}
	}
	JOINT rhip
	{
		OFFSET -0.060310 -0.090513 -0.013543
		CHANNELS 3 Zrotation Yrotation Xrotation
		JOINT rknee
		{
			OFFSET -0.043257 -0.383688 -0.004843
			CHANNELS 3 Zrotation Yrotation Xrotation
			JOINT rankle
			{
				OFFSET 0.019056 -0.420046 -0.034562
				CHANNELS 3 Zrotation Yrotation Xrotation
				JOINT rtoe
				{
					OFFSET -0.034840 -0.062106 0.130323
					CHANNELS 3 Zrotation Yrotation Xrotation
					End Site
					{
						OFFSET 0.000000 0.000000 0.000000
					}
				}
			}
		}
	}
	JOINT lowerback
	{
		OFFSET 0.004439 0.124404 -0.038385
		CHANNELS 3 Zrotation Yrotation Xrotation
		JOINT upperback
		{
			OFFSET 0.004488 0.137956 0.026820
			CHANNELS 3 Zrotation Yrotation Xrotation
			JOINT chest
			{
				OFFSET -0.002265 0.056032 0.002855
				CHANNELS 3 Zrotation Yrotation Xrotation
				JOINT lowerneck
				{
					OFFSET -0.013390 0.211636 -0.033468
					CHANNELS 3 Zrotation Yrotation Xrotation
					JOINT upperneck
					{
						OFFSET 0.010113 0.088937 0.050410
						CHANNELS 3 Zrotation Yrotation Xrotation
						End Site
						{
							OFFSET 0.000000 0.000000 0.000000
						}
					}
				}
				JOINT lclavicle
				{
					OFFSET 0.071702 0.114000 -0.018898
					CHANNELS 3 Zrotation Yrotation Xrotation
					JOINT lshoulder
					{
						OFFSET 0.122921 0.045205 -0.019046
						CHANNELS 3 Zrotation Yrotation Xrotation
						JOINT lelbow
						{
							OFFSET 0.255332 -0.015649 -0.022946
							CHANNELS 3 Zrotation Yrotation Xrotation
							JOINT lwrist
							{
								OFFSET 0.265709 0.012698 -0.007375
								CHANNELS 3 Zrotation Yrotation Xrotation
								End Site
								{
									OFFSET 0.000000 0.000000 0.000000
								}
							}
						}
					}
				}
				JOINT rclavicle
				{
					OFFSET -0.082954 0.112472 -0.023707
					CHANNELS 3 Zrotation Yrotation Xrotation
					JOINT rshoulder
					{
						OFFSET -0.113228 0.046853 -0.008472
						CHANNELS 3 Zrotation Yrotation Xrotation
						JOINT relbow
						{
							OFFSET -0.260127 -0.014369 -0.031269
							CHANNELS 3 Zrotation Yrotation Xrotation
							JOINT rwrist
							{
								OFFSET -0.269108 0.006794 -0.006027
								CHANNELS 3 Zrotation Yrotation Xrotation
								End Site
								{
									OFFSET 0.000000 0.000000 0.000000
								}
							}
						}
					}
				}
			}
		}
	}
}
MOTION
Frames: 8
Frame Time: 0.033333
1.854798 0.471242 0.971571 -74.574296 2.096999 88.133302 0.374800 0.714416 7.558187 -3.210620 -12.641533 8.318286 4.500853 7.365579 -20.466854 0.000000 -0.000000 0.000000 -4.149634 -2.603198 -15.936907 2.084543 -4.093745 4.196961 6.501088 -5.216239 5.830771 0.000000 -0.000000 0.000000 -1.105606 0.374515 5.604001 1.551922 -3.578330 6.377180 1.097083 -2.646167 0.200073 0.786946 -1.210808 -0.450471 5.970956 -1.793488 -8.990192 -23.435265 -6.387730 8.952729 -59.028768 -10.821559 12.259021 10.764329 -30.316924 9.309550 5.632897 -7.312787 -5.603003 22.066089 2.582496 5.495779 63.350952 -0.113930 9.891376 -22.283017 28.028821 -6.932460 3.633759 4.357533 -10.733605 
1.854312 0.470869 0.971643 -74.499872 2.346799 88.259491 0.527042 0.599511 7.395040 -3.090488 -12.747715 8.429439 5.126197 7.566091 -20.878270 0.000000 -0.000000 0.000000 -3.917561 -2.947766 -15.924042 2.265576 -4.081065 3.999073 6.491094 -4.969944 5.938043 0.000000 -0.000000 0.000000 -0.813425 0.428813 5.434068 1.588109 -3.845166 6.407759 1.116975 -2.785463 0.090259 0.716644 -1.431435 -0.295794 6.041232 -1.899885 -9.297797 -23.591436 -6.538510 9.110413 -58.878975 -10.625205 12.133782 10.738055 -29.679745 9.303328 5.540923 -6.932315 -5.393761 22.042616 2.661752 5.594722 63.347565 -0.302380 9.734134 -22.245647 27.976797 -7.062858 3.461598 4.217519 -10.753517 
1.852645 0.470969 0.972595 -74.297541 3.098912 87.887032 1.681428 0.840303 7.806986 -3.356932 -12.919545 8.689944 5.055558 7.230050 -21.211345 0.000000 -0.000000 0.000000 -3.330812 -2.680235 -15.081076 2.403892 -3.942325 3.858943 6.481754 -4.804496 6.648790 0.000000 -0.000000 0.000000 -0.207234 0.178125 5.658353 1.829877 -4.051710 6.870161 1.193022 -2.802783 -0.261709 0.603149 -1.897364 0.041262 6.004803 -1.822800 -9.871895 -23.876579 -6.591484 9.229656 -58.729468 -10.338997 11.795164 10.844064 -29.296557 9.369546 5.181016 -6.923437 -5.409002 22.002206 2.623153 5.419220 63.056489 -0.593295 9.393666 -21.768608 28.184987 -6.451404 3.510864 4.263404 -10.677245 
1.850248 0.470595 0.973319 -74.332631 3.556955 87.312801 2.282938 1.181531 8.632274 -3.306845 -13.290096 8.659305 5.006803 7.221777 -21.672931 0.000000 -0.000000 0.000000 -2.766696 -2.686949 -14.107612 2.529743 -4.391519 3.266280 6.493908 -4.948836 6.299002 0.000000 -0.000000 0.000000 0.077318 -0.037856 6.200739 1.908093 -4.162403 6.881043 1.269265 -2.788566 -0.277591 0.689630 -1.910320 0.030569 6.015774 -1.782204 -10.010596 -23.737324 -6.280822 9.128303 -58.680617 -9.866007 11.428906 10.603478 -29.047717 9.895245 5.011523 -6.829753 -5.555994 21.776622 1.965858 4.899036 63.173844 -0.608405 8.817038 -20.992736 28.403690 -5.123349 3.662023 4.199939 -10.245055 
1.850211 0.470624 0.973501 -74.452162 3.668554 87.430096 2.437892 1.189658 8.476105 -3.364430 -13.205732 8.730624 5.047861 7.236522 -21.649589 0.000000 -0.000000 0.000000 -2.682639 -2.535665 -14.296701 2.500665 -4.042062 3.553845 6.492695 -4.815515 6.729451 0.000000 -0.000000 0.000000 0.125475 -0.025756 6.161585 1.985156 -4.144790 6.883046 1.295591 -2.787738 -0.411072 0.723871 -1.993652 0.113819 6.026369 -1.753030 -10.138164 -23.772762 -6.189836 9.200105 -58.611898 -9.729932 11.304436 10.526801 -28.993414 9.980932 4.839671 -6.811499 -5.568582 21.804758 1.923059 4.911411 63.092388 -0.649011 8.802885 -20.870567 28.466654 -4.984115 3.552539 4.115824 -10.122710 
1.849400 0.470317 0.973348 -74.602792 3.564887 87.355568 2.267769 1.283220 8.711357 -3.261758 -13.206075 8.543419 5.001945 7.260585 -21.685110 0.000000 -0.000000 0.000000 -2.604503 -2.604237 -14.227432 2.454363 -4.336584 3.283898 6.371887 -5.030048 6.131760 0.000000 -0.000000 0.000000 -0.095407 -0.011136 6.155713 2.001138 -4.124253 6.795683 1.342558 -2.821301 -0.182501 0.898440 -1.926576 -0.149370 6.007245 -1.824934 -9.980951 -23.576217 -6.002866 9.124090 -58.679743 -9.518341 11.247343 10.503300 -28.792234 10.157373 4.925264 -6.819359 -5.442033 21.748513 1.855738 4.774937 63.300061 -0.634790 8.873966 -20.992677 28.506377 -5.034311 3.449580 4.098743 -9.969721 
1.849160 0.470257 0.973603 -74.704821 3.650680 87.457866 2.364275 1.287158 8.645873 -3.256656 -13.058232 8.461291 4.982378 7.227383 -21.608248 0.000000 -0.000000 0.000000 -2.506115 -2.490677 -14.392729 2.422143 -4.266482 3.460776 6.315396 -4.856533 6.384223 0.000000 -0.000000 0.000000 -0.031568 -0.040580 6.110227 2.013516 -4.149342 6.809644 1.334304 -2.877804 -0.245882 0.948004 -1.862135 -0.108533 5.983387 -1.793532 -10.140860 -23.626749 -5.878108 9.177326 -58.550338 -9.202221 11.119542 10.576083 -28.711602 9.995561 4.913789 -6.773425 -5.272219 21.818268 1.819270 4.780336 63.317164 -0.584321 8.902895 -21.000741 28.630871 -5.052687 3.175677 4.124202 -9.962422 
1.849007 0.470309 0.973747 -74.721478 3.778454 87.496376 2.651142 1.332362 8.634476 -3.408262 -12.961346 8.440534 4.967012 7.154741 -21.471151 0.000000 -0.000000 0.000000 -2.558919 -2.321811 -14.406788 2.451653 -3.863420 3.735140 6.471522 -4.690030 7.359052 0.000000 -0.000000 0.000000 0.073561 -0.130624 6.203826 2.072881 -4.204369 6.780746 1.328749 -2.909934 -0.329227 0.856076 -1.991715 0.057134 6.021050 -1.737602 -10.364892 -23.531540 -5.844015 9.254725 -58.614087 -8.927468 10.973664 10.582777 -28.536412 10.178422 4.731366 -6.804660 -5.317828 21.833830 1.827578 4.812763 63.264659 -0.553011 8.858012 -20.937271 28.838765 -4.976406 3.221126 4.125156 -10.042205 
